# xmcd
#
# Track frame offsets:
#	150
#	13756
#	29110
#	42313
#	58003
#	75094
#	88256
#	104024
#	118863
#	133100
#	154286
#	169105
#	180616
#	193658
#	204195
#	215964
#	229795
#	245047
#
# Disc length: 3509 seconds
#
# Revision: 4
# Processed by: cddbd v1.5.1PL0 Copyright (c) Steve Scherf et al.
# Submitted via: audiograbber 1.83.01
#
DISCID=090db312
DTITLE=1998-01 Country Radio - 1998-01 Country Radio
DYEAR=1998
DGENRE=Country
TTITLE0=George Strait - Round About Way
TTITLE1=Alan Jackson - A House With No Curtains
TTITLE2=Tracy Lawrence - One Step Ahead Of the Storm
TTITLE3=Reba McEntire - What If
TTITLE4=Clint Black - Nothin' But The Taillights
TTITLE5=Trishia Yearwood - Perfect Love
TTITLE6=John Anderson - Takinj' The Country Back
TTITLE7=Jo Dee Messina - Bye, Bye
TTITLE8=Rhett Akins - Better Than It Used To Be
TTITLE9=Shania Twain - Love Gets Me Every Time (Dance Mix)
TTITLE10=Jeff Carson - Cheatin' On Her Heart
TTITLE11=Sherrie Austin - Put Your Heart Into It
TTITLE12=Cactus Choir - Step Right Up
TTITLE13=Gina West - You Only Come Up When I'm Down
TTITLE14=Smokin' Armadillos - I Don't Want No Part Of It
TTITLE15=Winston Slade - The English Language
TTITLE16=John Keaton - Fairy Tales
TTITLE17=Loretta Hill and Jim Lyons - After Death Do Us Part- Loretta Hill and Jim 
TTITLE17=Lyons
EXTD=
EXTT0=
EXTT1=
EXTT2=
EXTT3=
EXTT4=
EXTT5=
EXTT6=
EXTT7=
EXTT8=
EXTT9=
EXTT10=
EXTT11=
EXTT12=
EXTT13=
EXTT14=
EXTT15=
EXTT16=
EXTT17=
PLAYORDER=
